<svg width="512" height="512" viewBox="0 0 512 512" fill="none" xmlns="http://www.w3.org/2000/svg">
  <rect width="512" height="512" rx="112" fill="#0F766E"/>
  <circle cx="256" cy="236" r="152" fill="#FDF2F8"/>
  <path d="M256 374C220 334 160 288 160 222C160 184 188 156 224 156C245 156 260 166 272 182C284 166 299 156 320 156C356 156 384 184 384 222C384 288 324 334 288 374C279 384 265 384 256 374Z" fill="#E11D48"/>
  <path d="M210 262C234 302 278 302 302 262" stroke="#0F766E" stroke-width="24" stroke-linecap="round"/>
  <circle cx="230" cy="224" r="14" fill="#0F766E"/>
  <circle cx="306" cy="224" r="14" fill="#0F766E"/>
</svg>
